# Blender v2.82 (sub 7) OBJ File: 'bg.blend'
# www.blender.org
o bush_b_Plane.146
v -0.565900 0.439482 0.139465
v 0.002279 0.000000 0.139465
v -0.565900 0.439482 -0.139465
v 0.002279 0.000000 -0.139465
v -0.200970 0.492359 0.139465
v -0.200970 0.492359 -0.139465
v -0.377725 0.567205 -0.139465
v -0.377725 0.567205 0.139465
v -0.077195 0.332230 0.139465
v -0.077195 0.332230 -0.139465
v -0.205509 0.393834 -0.480165
v -0.122996 0.000000 0.022269
v 0.041146 0.393834 -0.520672
v 0.123658 0.000000 -0.018238
v -0.152513 0.441220 -0.157462
v 0.094142 0.441220 -0.197969
v 0.068473 0.508291 -0.354271
v -0.178181 0.508291 -0.313764
v -0.134538 0.297722 -0.048009
v 0.112117 0.297722 -0.088516
v 0.556422 0.439482 -0.173457
v -0.010715 0.000000 -0.139072
v 0.573303 0.439482 0.104962
v 0.006166 0.000000 0.139347
v 0.192162 0.492359 -0.151372
v 0.209042 0.492359 0.127047
v 0.385473 0.567205 0.116350
v 0.368592 0.567205 -0.162069
v 0.068614 0.332230 -0.143881
v 0.085494 0.332230 0.134538
v 0.499313 0.446436 0.318142
v 0.100909 0.000000 -0.099467
v 0.294300 0.446436 0.513727
v -0.104104 0.000000 0.096117
v 0.243426 0.500150 0.049920
v 0.038413 0.500150 0.245505
v 0.162353 0.576180 0.375419
v 0.367366 0.576180 0.179834
v 0.156636 0.337487 -0.041054
v -0.048377 0.337487 0.154531
v -0.123336 0.516535 0.600518
v 0.133491 0.054266 0.060876
v -0.388257 0.516535 0.474437
v -0.131430 0.054266 -0.065205
v 0.041618 0.572155 0.253917
v -0.223302 0.572155 0.127836
v -0.303198 0.650881 0.295713
v -0.038278 0.650881 0.421794
v 0.097567 0.403722 0.136359
v -0.167354 0.403722 0.010278
v 0.139148 0.428598 -0.551104
v -0.121118 0.000000 -0.061923
v 0.379297 0.428598 -0.423334
v 0.119030 0.000000 0.065847
v -0.028016 0.480167 -0.236913
v 0.212133 0.480167 -0.109143
v 0.293099 0.553159 -0.261322
v 0.052951 0.553159 -0.389092
v -0.084713 0.324003 -0.130347
v 0.155435 0.324003 -0.002578
vt 0.731947 0.139778
vt 0.731947 0.023787
vt 0.925318 0.023787
vt 0.925318 0.139778
vt 0.731947 0.373296
vt 0.731947 0.255769
vt 0.925318 0.255769
vt 0.925318 0.373296
vt 0.731947 0.490823
vt 0.925318 0.490823
vt 0.731947 0.139778
vt 0.731947 0.023787
vt 0.925318 0.023787
vt 0.925318 0.139778
vt 0.731947 0.373296
vt 0.731947 0.255769
vt 0.925318 0.255769
vt 0.925318 0.373296
vt 0.731947 0.490823
vt 0.925318 0.490823
vt 0.731947 0.139778
vt 0.731947 0.023787
vt 0.925318 0.023787
vt 0.925318 0.139778
vt 0.731947 0.373296
vt 0.731947 0.255769
vt 0.925318 0.255769
vt 0.925318 0.373296
vt 0.731947 0.490823
vt 0.925318 0.490823
vt 0.731947 0.139778
vt 0.731947 0.023787
vt 0.925318 0.023787
vt 0.925318 0.139778
vt 0.731947 0.373296
vt 0.731947 0.255769
vt 0.925318 0.255769
vt 0.925318 0.373296
vt 0.731947 0.490823
vt 0.925318 0.490823
vt 0.731947 0.139778
vt 0.731947 0.023787
vt 0.925318 0.023787
vt 0.925318 0.139778
vt 0.731947 0.373296
vt 0.731947 0.255769
vt 0.925318 0.255769
vt 0.925318 0.373296
vt 0.731947 0.490823
vt 0.925318 0.490823
vt 0.731947 0.139778
vt 0.731947 0.023787
vt 0.925318 0.023787
vt 0.925318 0.139778
vt 0.731947 0.373296
vt 0.731947 0.255769
vt 0.925318 0.255769
vt 0.925318 0.373296
vt 0.731947 0.490823
vt 0.925318 0.490823
vn 0.9020 0.4317 0.0000
vn 0.9725 0.2326 0.0000
vn -0.0977 0.9952 0.0000
vn 0.6105 0.7920 0.0000
vn -0.5616 0.8274 0.0000
vn 0.1462 0.4317 0.8901
vn 0.1576 0.2326 0.9597
vn -0.0158 0.9952 -0.0964
vn 0.0989 0.7920 0.6024
vn -0.0910 0.8274 -0.5542
vn -0.9003 0.4317 0.0546
vn -0.9708 0.2326 0.0588
vn 0.0975 0.9952 -0.0059
vn -0.6093 0.7920 0.0369
vn 0.5606 0.8274 -0.0340
vn -0.6226 0.4317 -0.6526
vn -0.6713 0.2326 -0.7037
vn 0.0674 0.9952 0.0707
vn -0.4214 0.7920 -0.4417
vn 0.3876 0.8274 0.4063
vn 0.3876 0.4317 -0.8144
vn 0.4179 0.2326 -0.8782
vn -0.0420 0.9952 0.0882
vn 0.2623 0.7920 -0.5512
vn -0.2413 0.8274 0.5071
vn -0.4237 0.4317 0.7963
vn -0.4568 0.2326 0.8586
vn 0.0459 0.9952 -0.0863
vn -0.2867 0.7920 0.5389
vn 0.2638 0.8274 -0.4958
s 1
f 9/1/1 2/2/2 4/3/2 10/4/1
f 8/5/3 5/6/4 6/7/4 7/8/3
f 1/9/5 8/5/3 7/8/3 3/10/5
f 5/6/4 9/1/1 10/4/1 6/7/4
f 19/11/6 12/12/7 14/13/7 20/14/6
f 18/15/8 15/16/9 16/17/9 17/18/8
f 11/19/10 18/15/8 17/18/8 13/20/10
f 15/16/9 19/11/6 20/14/6 16/17/9
f 29/21/11 22/22/12 24/23/12 30/24/11
f 28/25/13 25/26/14 26/27/14 27/28/13
f 21/29/15 28/25/13 27/28/13 23/30/15
f 25/26/14 29/21/11 30/24/11 26/27/14
f 39/31/16 32/32/17 34/33/17 40/34/16
f 38/35/18 35/36/19 36/37/19 37/38/18
f 31/39/20 38/35/18 37/38/18 33/40/20
f 35/36/19 39/31/16 40/34/16 36/37/19
f 49/41/21 42/42/22 44/43/22 50/44/21
f 48/45/23 45/46/24 46/47/24 47/48/23
f 41/49/25 48/45/23 47/48/23 43/50/25
f 45/46/24 49/41/21 50/44/21 46/47/24
f 59/51/26 52/52/27 54/53/27 60/54/26
f 58/55/28 55/56/29 56/57/29 57/58/28
f 51/59/30 58/55/28 57/58/28 53/60/30
f 55/56/29 59/51/26 60/54/26 56/57/29
