# Blender v2.82 (sub 7) OBJ File: 'bg.blend'
# www.blender.org
o lantern_Cylinder.009
v 0.011287 1.520731 0.285127
v 0.011287 1.419527 0.142904
v 0.011287 1.433036 0.142904
v 0.111854 1.419527 0.184560
v 0.111854 1.433036 0.184560
v 0.153510 1.419527 0.285127
v 0.153510 1.433036 0.285127
v 0.111854 1.419527 0.385693
v 0.111854 1.433036 0.385693
v 0.011287 1.419527 0.427349
v 0.011287 1.433036 0.427349
v -0.089279 1.419527 0.385693
v -0.089279 1.433036 0.385693
v -0.130935 1.419527 0.285127
v -0.130935 1.433036 0.285127
v -0.089279 1.419527 0.184560
v -0.089279 1.433036 0.184560
v -0.010658 1.397565 0.151994
v 0.120944 1.397565 0.206506
v 0.144420 1.397565 0.263181
v 0.089908 1.397565 0.394783
v 0.033233 1.397565 0.418259
v -0.098369 1.397565 0.363748
v -0.121845 1.397565 0.307072
v -0.067334 1.397565 0.175470
v -0.002026 1.232040 0.204359
v 0.077813 1.232040 0.237429
v 0.092055 1.232040 0.271813
v 0.058985 1.232040 0.351652
v 0.024601 1.232040 0.365895
v -0.055238 1.232040 0.332824
v -0.069481 1.232040 0.298440
v -0.036410 1.232040 0.218601
v -0.009869 1.394587 0.156785
v 0.116998 1.394587 0.209335
v 0.139629 1.394587 0.263971
v 0.087079 1.394587 0.390837
v 0.032443 1.394587 0.413469
v -0.094424 1.394587 0.360919
v -0.117055 1.394587 0.306282
v -0.064505 1.394587 0.179416
v -0.001547 1.235018 0.207265
v 0.075419 1.235018 0.239146
v 0.089149 1.235018 0.272292
v 0.057268 1.235018 0.349259
v 0.024122 1.235018 0.362988
v -0.052845 1.235018 0.331108
v -0.066574 1.235018 0.297961
v -0.034694 1.235018 0.220995
v 0.011287 1.446394 -0.056734
v 0.011287 -0.002702 -0.058311
v 0.059850 1.446394 -0.051061
v 0.050380 -0.002702 -0.042119
v 0.079966 1.446394 -0.002498
v 0.066572 -0.002702 -0.003026
v 0.059850 1.446394 0.046065
v 0.050380 -0.002702 0.036066
v 0.011287 1.446394 0.046323
v 0.011287 -0.002702 0.052259
v -0.037276 1.446394 0.046065
v -0.027805 -0.002702 0.036066
v -0.057391 1.446394 -0.002498
v -0.043998 -0.002702 -0.003026
v -0.037276 1.446394 -0.051061
v -0.027805 -0.002702 -0.042119
v 0.011287 0.721846 -0.060818
v 0.052152 0.721846 -0.043891
v 0.069079 0.721846 -0.003026
v 0.052152 0.721846 0.037839
v 0.011287 0.721846 0.054765
v -0.029578 0.721846 0.037839
v -0.046504 0.721846 -0.003026
v -0.029578 0.721846 -0.043891
v 0.026873 1.084120 -0.039249
v 0.043065 1.084120 -0.000157
v 0.026873 1.084120 0.038935
v -0.012220 1.084120 0.055128
v -0.051312 1.084120 0.038935
v -0.067504 1.084120 -0.000157
v -0.051312 1.084120 -0.039249
v -0.012220 1.084120 -0.055442
v 0.026419 0.359572 -0.047504
v 0.065511 0.359572 -0.031312
v 0.081703 0.359572 0.007781
v 0.065511 0.359572 0.046873
v 0.026419 0.359572 0.063065
v -0.012674 0.359572 0.046873
v -0.028866 0.359572 0.007781
v -0.012674 0.359572 -0.031312
v 0.013083 1.446394 -0.003026
v -0.091986 1.564972 0.025904
v -0.064541 1.572842 0.027390
v -0.110750 1.559591 -0.003611
v -0.093863 1.564434 -0.037254
v -0.065365 1.572606 -0.035371
v -0.055880 1.575326 -0.003611
v 0.128005 1.620828 -0.033859
v 0.086521 1.620828 -0.028174
v 0.148563 1.620828 0.015773
v 0.128005 1.620828 0.065405
v 0.083249 1.620828 0.056946
v 0.067556 1.620828 0.014187
v 0.107555 1.648890 0.013778
v -0.002472 1.544647 0.346822
v -0.004422 1.549037 -0.193997
v -0.004422 1.509702 0.331581
v -0.007279 1.493134 -0.176437
v 0.023392 1.521223 0.331581
v 0.020535 1.504655 -0.176437
v 0.034913 1.549037 0.331581
v 0.032056 1.532469 -0.176437
v 0.023392 1.576851 0.331581
v 0.020535 1.560284 -0.176437
v -0.004422 1.588372 0.331581
v -0.007279 1.571805 -0.176437
v -0.032237 1.576851 0.331581
v -0.035093 1.560284 -0.176437
v -0.043758 1.549037 0.331581
v -0.046614 1.532469 -0.176437
v -0.032237 1.521223 0.331581
v -0.035093 1.504655 -0.176437
v -0.004422 1.509702 -0.000656
v 0.023392 1.521223 -0.000656
v 0.034913 1.549037 -0.000656
v 0.023392 1.576851 -0.000656
v -0.004422 1.588372 -0.000656
v -0.032237 1.576851 -0.000656
v -0.043758 1.549037 -0.000656
v -0.032237 1.521223 -0.000656
v 0.037704 1.520546 0.216139
v 0.049225 1.548360 0.216139
v 0.037704 1.576174 0.216139
v 0.009890 1.587695 0.216139
v -0.017925 1.576174 0.216139
v -0.029446 1.548360 0.216139
v -0.017925 1.520546 0.216139
v 0.009890 1.509025 0.216139
v 0.202682 0.031875 -0.052525
v 0.081436 0.039708 -0.102186
v 0.076042 0.043276 0.003938
v 0.229652 -0.005615 -0.099232
v 0.227658 -0.005594 -0.007495
v 0.143160 0.057897 -0.105854
v 0.074210 -0.005836 -0.119353
v 0.145959 0.065739 0.009109
v 0.073524 -0.005844 0.014373
v 0.057050 0.053958 -0.052249
v 0.265012 -0.004953 -0.051935
v 0.150486 -0.005834 -0.131787
v 0.155749 -0.005956 0.054197
v 0.112440 0.080890 -0.052572
v 0.040474 -0.005826 -0.052375
v -0.079775 0.040987 0.135501
v 0.002802 0.044524 0.075461
v 0.065007 0.018675 0.034558
v 0.186973 0.037122 0.084597
v 0.122100 0.110667 0.215463
v -0.039056 0.071528 0.276078
v -0.039865 0.062072 0.093188
v 0.031057 0.040056 0.053672
v -0.080734 0.073935 0.201713
v 0.126068 0.039530 0.039191
v 0.045699 0.126416 0.117659
v 0.057871 0.112663 0.260597
v 0.167844 0.089363 0.159612
v -0.007199 0.130279 0.157307
v 0.087724 0.100632 0.080675
v -0.007911 -0.008573 0.065835
v -0.071181 -0.008895 0.122475
v 0.050178 -0.009341 0.044763
v -0.036285 -0.008129 0.276977
v 0.192582 -0.009294 0.088555
v 0.122653 -0.007365 0.224819
v -0.048217 -0.007900 0.081158
v 0.021286 -0.008473 0.051606
v -0.082523 -0.008380 0.194143
v 0.122383 -0.009482 0.031788
v 0.177543 -0.007928 0.179407
v 0.064564 -0.007252 0.268475
vt 0.442235 0.859238
vt 0.477253 0.774696
vt 0.526777 0.824220
vt 0.532923 0.818074
vt 0.483399 0.768550
vt 0.407217 0.774696
vt 0.537501 0.732926
vt 0.537501 0.747535
vt 0.419786 0.747535
vt 0.419786 0.732926
vt 0.357693 0.824220
vt 0.401071 0.768550
vt 0.351547 0.818074
vt 0.357693 0.894256
vt 0.499665 0.732925
vt 0.499665 0.747533
vt 0.381950 0.747533
vt 0.381950 0.732925
vt 0.407217 0.943780
vt 0.351547 0.900402
vt 0.401071 0.949926
vt 0.477253 0.943780
vt 0.466136 0.733776
vt 0.466136 0.748385
vt 0.348421 0.748385
vt 0.348421 0.733776
vt 0.526777 0.894256
vt 0.483399 0.949926
vt 0.532923 0.900402
vt 0.517566 0.732926
vt 0.517566 0.747535
vt 0.399851 0.747535
vt 0.399851 0.732926
vt 0.374109 0.710027
vt 0.440449 0.710027
vt 0.407637 0.709175
vt 0.473977 0.709175
vt 0.425538 0.709177
vt 0.491878 0.709177
vt 0.445474 0.709177
vt 0.511814 0.709177
vt 0.438585 0.521652
vt 0.478831 0.521652
vt 0.420684 0.521650
vt 0.460930 0.521650
vt 0.387155 0.522502
vt 0.427402 0.522502
vt 0.458521 0.521652
vt 0.498767 0.521652
vt 0.456049 0.949681
vt 0.456049 0.889399
vt 0.437692 0.871042
vt 0.377410 0.871042
vt 0.359053 0.889399
vt 0.359053 0.949681
vt 0.377410 0.968038
vt 0.437692 0.968038
vt 0.491878 0.709177
vt 0.478831 0.521652
vt 0.438585 0.521652
vt 0.425538 0.709177
vt 0.473977 0.709175
vt 0.460930 0.521650
vt 0.420684 0.521650
vt 0.407637 0.709175
vt 0.440449 0.710027
vt 0.427402 0.522502
vt 0.387155 0.522502
vt 0.374109 0.710027
vt 0.511814 0.709177
vt 0.498767 0.521652
vt 0.458521 0.521652
vt 0.445474 0.709177
vt 0.258871 0.867966
vt 0.228854 0.867966
vt 0.228854 0.989451
vt 0.258871 0.989451
vt 0.198838 0.867966
vt 0.198838 0.989451
vt 0.168821 0.867966
vt 0.168821 0.989451
vt 0.138804 0.867966
vt 0.138804 0.989451
vt 0.108788 0.867966
vt 0.108788 0.989451
vt 0.078771 0.867966
vt 0.078771 0.989451
vt 0.048754 0.867966
vt 0.048754 0.989451
vt 0.018738 0.867966
vt 0.018738 0.989451
vt 0.048754 0.624996
vt 0.018738 0.624996
vt 0.018738 0.746481
vt 0.048754 0.746481
vt 0.078771 0.624996
vt 0.078771 0.746481
vt 0.108788 0.624996
vt 0.108788 0.746481
vt 0.138804 0.624996
vt 0.138804 0.746481
vt 0.168821 0.624996
vt 0.168821 0.746481
vt 0.198838 0.624996
vt 0.198838 0.746481
vt 0.228854 0.624996
vt 0.228854 0.746481
vt 0.258871 0.624996
vt 0.258871 0.746481
vt 0.258871 0.503511
vt 0.228854 0.503511
vt 0.198838 0.503511
vt 0.168821 0.503511
vt 0.138804 0.503511
vt 0.108788 0.503511
vt 0.078771 0.503511
vt 0.048754 0.503511
vt 0.018738 0.503511
vt 0.141041 0.578748
vt 0.062572 0.569984
vt 0.059379 0.581782
vt 0.075123 0.621402
vt 0.018862 0.652341
vt 0.045044 0.580734
vt 0.044586 0.571839
vt 0.022078 0.600042
vt 0.079691 0.640320
vt 0.098999 0.639627
vt 0.059467 0.681733
vt 0.077724 0.661697
vt 0.069138 0.654014
vt 0.106990 0.689811
vt 0.079821 0.640613
vt 0.069502 0.654029
vt 0.097219 0.691798
vt 0.097202 0.655129
vt 0.143259 0.644731
vt 0.087643 0.659682
vt 0.143259 0.782510
vt 0.198698 0.601019
vt 0.170324 0.571772
vt 0.165970 0.607870
vt 0.198698 0.561591
vt 0.020554 0.533730
vt 0.045895 0.569829
vt 0.047411 0.569642
vt 0.084336 0.556931
vt 0.144267 0.549243
vt 0.170803 0.533730
vt 0.143307 0.583293
vt 0.211016 0.566857
vt 0.211016 0.630228
vt 0.255827 0.611667
vt 0.078994 0.566857
vt 0.123804 0.611667
vt 0.078994 0.630228
vt 0.277028 0.758898
vt 0.277028 0.893760
vt 0.244022 0.893760
vt 0.244022 0.758898
vt 0.274387 0.566857
vt 0.142365 0.566857
vt 0.211016 0.893760
vt 0.211016 0.758898
vt 0.255827 0.522047
vt 0.123804 0.522047
vt 0.178011 0.893760
vt 0.178011 0.758898
vt 0.211016 0.503487
vt 0.078994 0.503487
vt 0.145005 0.893760
vt 0.145005 0.758898
vt 0.166206 0.522047
vt 0.034184 0.522047
vt 0.111999 0.893760
vt 0.111999 0.758898
vt 0.147646 0.566857
vt 0.015623 0.566857
vt 0.078994 0.893760
vt 0.078994 0.758898
vt 0.166206 0.611667
vt 0.034184 0.611667
vt 0.045988 0.893760
vt 0.045988 0.758898
vt 0.012982 0.893760
vt 0.012982 0.758898
vt 0.045988 0.592570
vt 0.012982 0.592570
vt 0.078994 0.592570
vt 0.111999 0.592570
vt 0.145005 0.592570
vt 0.178011 0.592570
vt 0.211017 0.592570
vt 0.244022 0.592570
vt 0.277028 0.592570
vt 0.277028 0.504001
vt 0.244022 0.504001
vt 0.211016 0.504001
vt 0.178011 0.504001
vt 0.145005 0.504001
vt 0.111999 0.504001
vt 0.078994 0.504001
vt 0.045988 0.504001
vt 0.012982 0.504001
vt 0.705842 0.692050
vt 0.607398 0.737381
vt 0.597305 0.637899
vt 0.682813 0.581372
vt 0.834143 0.582348
vt 0.798405 0.699291
vt 0.934224 0.678543
vt 0.853681 0.718240
vt 0.758562 0.773893
vt 0.671377 0.884199
vt 0.808080 0.808007
vt 0.829383 0.894589
vt 0.796436 0.746329
vt 0.835817 0.766338
vt 0.934224 0.814204
vt 0.978845 0.803319
vt 0.891205 0.915705
vt 0.843541 0.828386
vt 0.887770 0.780253
vt 0.978845 0.693636
vt 0.920685 0.724343
vt 0.824795 0.540834
vt 0.793158 0.576870
vt 0.727727 0.600185
vt 0.713821 0.534318
vt 0.662583 0.639390
vt 0.608327 0.611539
vt 0.826694 0.736554
vt 0.883490 0.679012
vt 0.776256 0.799838
vt 0.734062 0.763261
vt 0.794901 0.701376
vt 0.859314 0.635876
vt 0.765884 0.664242
vt 0.829667 0.611316
vt 0.695445 0.718641
vt 0.619229 0.867804
vt 0.723837 0.935858
vt 0.572370 0.752657
vt 0.866983 0.558097
vt 0.906969 0.583986
vt 0.956305 0.626719
vn 0.0000 1.0000 -0.0000
vn 0.3711 0.8512 -0.3711
vn 0.0000 0.8512 -0.5249
vn 0.3827 0.0000 -0.9239
vn 0.5249 0.8512 -0.0000
vn 0.9239 0.0000 -0.3827
vn 0.3711 0.8512 0.3711
vn 0.9239 0.0000 0.3827
vn -0.0000 0.8512 0.5249
vn 0.3827 0.0000 0.9239
vn -0.3711 0.8512 0.3711
vn -0.3827 0.0000 0.9239
vn -0.5249 0.8512 0.0000
vn -0.9239 0.0000 0.3827
vn -0.3711 0.8512 -0.3711
vn -0.9239 0.0000 -0.3827
vn -0.3827 0.0000 -0.9239
vn -0.8954 -0.2462 0.3709
vn 0.3709 -0.2462 0.8954
vn -0.3709 -0.2462 -0.8954
vn 0.8954 -0.2462 -0.3709
vn -0.3653 -0.2980 -0.8819
vn 0.3653 -0.2980 0.8819
vn -0.8819 -0.2980 0.3653
vn 0.8819 -0.2980 -0.3653
vn 0.4748 0.3126 0.8227
vn 0.3653 0.2980 0.8819
vn 0.2461 0.3126 0.9175
vn -0.4748 0.3126 -0.8227
vn -0.3653 0.2980 -0.8819
vn -0.2461 0.3126 -0.9175
vn 0.8227 0.3126 -0.4748
vn 0.8819 0.2980 -0.3653
vn 0.9175 0.3126 -0.2461
vn -0.8227 0.3126 0.4748
vn -0.8819 0.2980 0.3653
vn -0.9175 0.3126 0.2461
vn 0.0103 -0.0035 -0.9999
vn 0.7157 -0.0035 -0.6984
vn 0.6983 -0.0078 -0.7158
vn -0.0101 0.0302 -0.9995
vn 1.0000 -0.0034 0.0072
vn 0.9991 -0.0415 -0.0074
vn 0.7085 -0.0034 0.7057
vn 0.7047 -0.0505 0.7077
vn 0.0101 -0.0034 0.9999
vn -0.0103 -0.0294 0.9995
vn -0.6983 -0.0035 0.7158
vn -0.7157 0.0091 0.6983
vn -1.0000 -0.0035 0.0074
vn -0.9991 0.0419 -0.0071
vn -0.7056 -0.0035 -0.7086
vn -0.7076 0.0506 -0.7048
vn -0.6906 -0.0119 -0.7231
vn -0.0126 -0.0039 -0.9999
vn 0.0029 -0.0106 -0.9999
vn -0.7026 -0.0449 -0.7102
vn -0.9999 -0.0148 0.0017
vn -0.9986 -0.0534 -0.0045
vn -0.6787 -0.0117 0.7344
vn -0.7075 -0.0302 0.7060
vn -0.0114 -0.0008 0.9999
vn 0.0027 0.0113 0.9999
vn 0.6594 -0.0044 0.7518
vn 0.7099 0.0457 0.7028
vn 0.9999 -0.0152 0.0018
vn 0.9986 0.0529 -0.0046
vn 0.6724 -0.0069 -0.7402
vn 0.7058 0.0296 -0.7078
vn -0.0147 0.2463 -0.9691
vn 0.5554 -0.0679 -0.8288
vn 0.9700 -0.2425 -0.0143
vn 0.5290 -0.1532 0.8347
vn -0.0630 0.2277 0.9717
vn -0.5172 -0.0183 0.8556
vn -0.9802 -0.1976 0.0116
vn -0.5411 -0.0432 -0.8398
vn -0.4951 0.5196 0.6963
vn -0.8196 0.5728 -0.0098
vn -0.0979 0.9949 -0.0252
vn -0.4488 0.5844 -0.6760
vn 0.5639 0.3548 -0.7458
vn 0.4562 0.8899 -0.0010
vn 0.2335 0.7872 0.5707
vn -0.6376 0.4307 -0.6388
vn 0.2095 0.8000 -0.5622
vn -0.9575 0.2880 0.0141
vn -0.6127 0.4862 0.6231
vn 0.5259 0.3074 0.7931
vn -0.0083 0.9998 -0.0161
vn 0.9662 0.2575 0.0156
vn 0.0185 -0.0417 0.9990
vn -0.0217 -0.8686 0.4950
vn 0.5905 -0.6070 0.5319
vn 0.0334 0.1932 -0.9806
vn 0.5988 -0.6293 -0.4953
vn -0.0042 -0.8704 -0.4923
vn -0.0059 -0.9989 0.0465
vn 0.7101 -0.7041 0.0026
vn 0.8320 0.0048 0.5547
vn 0.8706 -0.0311 -0.4910
vn 0.9990 0.0117 -0.0424
vn 0.5784 0.6044 0.5478
vn 0.6439 0.6095 -0.4625
vn 0.6969 0.7146 -0.0610
vn -0.0216 0.8560 0.5166
vn -0.0081 0.8949 -0.4462
vn -0.0062 0.9990 -0.0444
vn -0.6281 0.6110 0.4818
vn -0.6422 0.5995 -0.4777
vn -0.7043 0.7099 -0.0036
vn -0.8866 0.0046 0.4625
vn -0.8684 -0.0283 -0.4951
vn -0.9991 0.0120 0.0397
vn -0.6383 -0.6117 0.4674
vn -0.6044 -0.6251 -0.4938
vn -0.7147 -0.6967 0.0613
vn -0.6945 -0.7192 -0.0190
vn 0.0230 -0.9997 0.0027
vn -0.9996 -0.0011 -0.0294
vn -0.6956 0.7181 -0.0211
vn 0.0231 0.9997 -0.0000
vn 0.7186 0.6951 0.0198
vn 0.9996 -0.0010 0.0281
vn 0.7175 -0.6962 0.0216
vn 0.5821 0.8113 -0.0542
vn 0.6005 0.7416 0.2993
vn 0.5086 0.8609 0.0108
vn 0.5328 0.7704 -0.3502
vn 0.1984 0.5314 -0.8236
vn 0.1741 0.7758 -0.6066
vn -0.5317 0.3495 -0.7714
vn -0.5024 0.5326 -0.6811
vn 0.1733 0.8310 0.5287
vn 0.2009 0.5807 0.7890
vn -0.5881 0.5372 0.6046
vn -0.6339 0.3191 0.7045
vn -0.0690 0.9951 -0.0712
vn -0.7652 0.6424 -0.0436
vn -0.9663 0.2553 -0.0325
vn -0.9801 -0.0340 0.1956
vn -0.4487 0.0148 0.8936
vn -0.4581 0.4012 0.7932
vn -0.8634 0.4767 0.1655
vn -0.9203 0.0563 -0.3872
vn -0.9090 0.2593 -0.3262
vn -0.2714 0.0072 -0.9624
vn -0.1704 0.1892 -0.9670
vn 0.3115 0.3859 -0.8684
vn 0.2734 0.0078 -0.9619
vn 0.8430 0.3581 -0.4013
vn 0.9384 0.1028 -0.3299
vn -0.3294 0.9313 -0.1555
vn -0.5590 0.4755 -0.6793
vn 0.1750 0.6699 0.7215
vn 0.5587 0.6872 0.4643
vn -0.0323 0.9145 -0.4033
vn -0.3740 0.4181 -0.8278
vn 0.1113 0.7974 -0.5931
vn -0.3529 0.3738 -0.8578
vn 0.7798 0.6133 0.1259
vn 0.6530 0.1014 0.7506
vn 0.3641 0.0649 0.9291
vn 0.8772 0.1345 0.4608
vn -0.4523 0.1203 -0.8837
vn -0.4114 0.2071 -0.8876
vn -0.5895 0.1742 -0.7887
s 1
f 1/1/1 5/2/2 3/3/3
f 2/4/4 3/3/4 5/2/4 4/5/4
f 1/1/1 7/6/5 5/2/2
f 4/7/6 5/8/6 7/9/6 6/10/6
f 1/1/1 9/11/7 7/6/5
f 6/12/8 7/6/8 9/11/8 8/13/8
f 1/1/1 11/14/9 9/11/7
f 8/15/10 9/16/10 11/17/10 10/18/10
f 1/1/1 13/19/11 11/14/9
f 10/20/12 11/14/12 13/19/12 12/21/12
f 1/1/1 15/22/13 13/19/11
f 12/23/14 13/24/14 15/25/14 14/26/14
f 1/1/1 17/27/15 15/22/13
f 14/28/16 15/22/16 17/27/16 16/29/16
f 1/1/1 3/3/3 17/27/15
f 16/30/17 17/31/17 3/32/17 2/33/17
f 12/23/14 14/26/14 24/34/18 23/35/18
f 8/15/10 10/18/10 22/36/19 21/37/19
f 16/30/17 2/33/17 18/38/20 25/39/20
f 4/7/6 6/10/6 20/40/21 19/41/21
f 25/39/20 18/38/20 26/42/22 33/43/22
f 21/37/19 22/36/19 30/44/23 29/45/23
f 23/35/18 24/34/18 32/46/24 31/47/24
f 19/41/21 20/40/21 28/48/25 27/49/25
f 27/50/1 26/51/1 33/52/1 32/53/1 31/54/1 30/55/1 29/56/1 28/57/1
f 41/58/26 49/59/27 42/60/27 34/61/28
f 37/62/29 45/63/30 46/64/30 38/65/31
f 39/66/32 47/67/33 48/68/33 40/69/34
f 35/70/35 43/71/36 44/72/36 36/73/37
f 82/74/38 83/75/39 53/76/40 51/77/41
f 83/75/39 84/78/42 55/79/43 53/76/40
f 84/78/42 85/80/44 57/81/45 55/79/43
f 85/80/44 86/82/46 59/83/47 57/81/45
f 86/82/46 87/84/48 61/85/49 59/83/47
f 87/84/48 88/86/50 63/87/51 61/85/49
f 88/86/50 89/88/52 65/89/53 63/87/51
f 89/88/52 82/90/38 51/91/41 65/89/53
f 80/92/54 81/93/55 66/94/56 73/95/57
f 79/96/58 80/92/54 73/95/57 72/97/59
f 78/98/60 79/96/58 72/97/59 71/99/61
f 77/100/62 78/98/60 71/99/61 70/101/63
f 76/102/64 77/100/62 70/101/63 69/103/65
f 75/104/66 76/102/64 69/103/65 68/105/67
f 74/106/68 75/104/66 68/105/67 67/107/69
f 81/108/55 74/106/68 67/107/69 66/109/56
f 50/110/70 52/111/71 74/106/68 81/108/55
f 52/111/71 54/112/72 75/104/66 74/106/68
f 54/112/72 56/113/73 76/102/64 75/104/66
f 56/113/73 58/114/74 77/100/62 76/102/64
f 58/114/74 60/115/75 78/98/60 77/100/62
f 60/115/75 62/116/76 79/96/58 78/98/60
f 62/116/76 64/117/77 80/92/54 79/96/58
f 64/117/77 50/118/70 81/93/55 80/92/54
f 73/95/57 66/94/56 82/90/38 89/88/52
f 72/97/59 73/95/57 89/88/52 88/86/50
f 71/99/61 72/97/59 88/86/50 87/84/48
f 70/101/63 71/99/61 87/84/48 86/82/46
f 69/103/65 70/101/63 86/82/46 85/80/44
f 68/105/67 69/103/65 85/80/44 84/78/42
f 67/107/69 68/105/67 84/78/42 83/75/39
f 66/109/56 67/107/69 83/75/39 82/74/38
f 58/119/74 101/120/78 102/121/79 90/122/80
f 50/123/70 98/124/81 97/125/82 52/126/71
f 90/122/80 96/127/83 92/128/84 58/119/74
f 64/129/77 94/130/85 95/131/86 50/123/70
f 93/132/87 96/133/83 95/134/86 94/135/85
f 92/128/84 96/133/83 93/132/87 91/136/88
f 60/137/75 91/136/88 93/138/87 62/139/76
f 50/123/70 95/131/86 96/127/83 90/122/80
f 62/139/76 93/138/87 94/130/85 64/129/77
f 58/119/74 92/128/84 91/136/88 60/137/75
f 100/140/89 103/141/90 101/142/78
f 99/143/91 103/141/90 100/140/89
f 54/144/72 99/145/91 100/146/89 56/147/73
f 56/147/73 100/146/89 101/120/78 58/119/74
f 90/122/80 102/121/79 98/124/81 50/123/70
f 52/126/71 97/125/82 99/145/91 54/144/72
f 98/148/81 103/141/90 97/149/82
f 102/150/79 101/142/78 103/141/90
f 97/149/82 103/141/90 99/143/91
f 102/150/79 103/141/90 98/148/81
f 104/151/92 106/152/93 108/153/94
f 105/154/95 109/155/96 107/156/97
f 122/157/98 107/158/97 109/159/96 123/160/99
f 104/151/92 108/153/94 110/161/100
f 105/154/95 111/162/101 109/155/96
f 123/160/99 109/159/96 111/163/101 124/164/102
f 104/151/92 110/161/100 112/165/103
f 105/154/95 113/166/104 111/162/101
f 124/164/102 111/163/101 113/167/104 125/168/105
f 104/151/92 112/165/103 114/169/106
f 105/154/95 115/170/107 113/166/104
f 125/168/105 113/167/104 115/171/107 126/172/108
f 104/151/92 114/169/106 116/173/109
f 105/154/95 117/174/110 115/170/107
f 126/172/108 115/171/107 117/175/110 127/176/111
f 104/151/92 116/173/109 118/177/112
f 105/154/95 119/178/113 117/174/110
f 127/176/111 117/175/110 119/179/113 128/180/114
f 104/151/92 118/177/112 120/181/115
f 105/154/95 121/182/116 119/178/113
f 128/180/114 119/179/113 121/183/116 129/184/117
f 104/151/92 120/181/115 106/152/93
f 105/154/95 107/156/97 121/182/116
f 129/184/117 121/183/116 107/185/97 122/186/98
f 136/187/118 129/184/117 122/186/98 137/188/119
f 135/189/120 128/180/114 129/184/117 136/187/118
f 134/190/121 127/176/111 128/180/114 135/189/120
f 133/191/122 126/172/108 127/176/111 134/190/121
f 132/192/123 125/168/105 126/172/108 133/191/122
f 131/193/124 124/164/102 125/168/105 132/192/123
f 130/194/125 123/160/99 124/164/102 131/193/124
f 137/195/119 122/157/98 123/160/99 130/194/125
f 106/196/93 137/195/119 130/194/125 108/197/94
f 108/197/94 130/194/125 131/193/124 110/198/100
f 110/198/100 131/193/124 132/192/123 112/199/103
f 112/199/103 132/192/123 133/191/122 114/200/106
f 114/200/106 133/191/122 134/190/121 116/201/109
f 116/201/109 134/190/121 135/189/120 118/202/112
f 118/202/112 135/189/120 136/187/118 120/203/115
f 120/203/115 136/187/118 137/188/119 106/204/93
f 138/205/126 142/206/127 148/207/128 141/208/129
f 138/205/126 141/208/129 149/209/130 143/210/131
f 143/210/131 149/209/130 144/211/132 139/212/133
f 138/205/126 145/213/134 150/214/135 142/206/127
f 145/213/134 140/215/136 146/216/137 150/214/135
f 138/205/126 143/210/131 151/217/138 145/213/134
f 139/212/133 147/218/139 151/217/138 143/210/131
f 140/215/136 145/213/134 151/217/138 147/218/139
f 152/219/140 146/216/137 140/215/136 147/218/139
f 144/211/132 152/219/140 147/218/139 139/212/133
f 176/220/141 171/221/142 158/222/143 161/223/144
f 169/224/145 176/220/141 161/223/144 153/225/146
f 170/226/147 155/227/148 162/228/149 177/229/150
f 177/229/150 162/228/149 156/230/151 172/231/152
f 153/225/146 161/223/144 166/232/153 159/233/154
f 161/223/144 158/222/143 164/234/155 166/232/153
f 166/232/153 164/234/155 157/235/156 163/236/157
f 159/233/154 166/232/153 163/236/157 154/237/158
f 154/237/158 163/236/157 167/238/159 160/239/160
f 163/236/157 157/235/156 165/240/161 167/238/159
f 167/238/159 165/240/161 156/230/151 162/228/149
f 160/239/160 167/238/159 162/228/149 155/227/148
f 173/241/162 157/235/156 164/234/155 179/242/163
f 179/242/163 164/234/155 158/222/143 171/221/142
f 165/240/161 157/235/156 173/241/162 178/243/164
f 156/230/151 165/240/161 178/243/164 172/231/152
f 155/227/148 170/226/147 175/244/165 160/239/160
f 154/237/158 160/239/160 175/244/165 168/245/166
f 154/237/158 168/245/166 174/246/167 159/233/154
f 153/225/146 159/233/154 174/246/167 169/224/145
