# Blender v2.82 (sub 7) OBJ File: 'bg.blend'
# www.blender.org
o road_c_Plane.154
v 9.999999 0.000000 -5.000001
v -10.000001 0.617821 -4.999999
v 10.000001 0.000000 4.999999
v -9.999999 0.617821 5.000001
v 0.109860 0.000000 -5.000000
v -0.775821 0.000000 5.000000
v 10.000000 0.000000 -0.000002
v -10.000000 0.617821 0.000002
v 0.053232 0.000000 -0.000000
v 10.000000 0.000000 -2.500001
v -10.000000 0.617821 -2.499999
v 0.380560 0.000000 -2.500000
v -10.000000 0.617821 2.500001
v 0.204280 0.000000 2.500000
v 10.000000 0.000000 2.499999
v 10.000000 0.000000 1.249998
v -10.000000 0.617821 1.250002
v 0.217607 0.000000 1.250000
v -10.000000 0.617821 -1.249998
v 0.281518 0.000000 -1.250000
v 10.000000 0.000000 -1.250002
v -9.999999 0.617821 3.750001
v -0.180058 0.000000 3.750000
v 10.000001 0.000000 3.749999
v 9.999999 0.000000 -3.750001
v -10.000001 0.617821 -3.749999
v 0.206294 0.000000 -3.750000
v -0.231885 0.617821 -5.000000
v -0.052593 0.540883 -5.000000
v -0.938270 0.540873 5.000000
v -1.118525 0.617821 5.000000
v -0.288775 0.617821 0.000000
v -0.109219 0.540881 0.000000
v 0.038747 0.617821 -2.500000
v 0.218108 0.540883 -2.500000
v -0.138076 0.617821 2.500000
v 0.041830 0.540877 2.500000
v 0.055156 0.540879 1.250000
v -0.124542 0.617821 1.250000
v 0.119066 0.540882 -1.250000
v -0.060378 0.617821 -1.250000
v -0.342508 0.540874 3.750000
v -0.522651 0.617821 3.750000
v 0.043842 0.540883 -3.750000
v -0.135470 0.617821 -3.750000
vt 0.312500 0.511469
vt 0.312500 1.000000
vt 0.250000 1.000000
vt 0.250000 0.511652
vt 0.062500 -0.000000
vt 0.062500 0.494507
vt -0.000000 0.494507
vt -0.000000 0.000000
vt 0.062500 0.511873
vt 0.062500 1.000000
vt -0.000000 1.000000
vt -0.000000 0.512412
vt 0.187500 1.000000
vt 0.187500 0.511530
vt 0.312500 -0.000000
vt 0.312500 0.494507
vt 0.250000 0.494507
vt 0.250000 -0.000000
vt 0.312500 0.502630
vt 0.250000 0.502630
vt 0.375000 0.511390
vt 0.375000 1.000000
vt 0.437500 -0.000000
vt 0.437500 0.494507
vt 0.375000 0.494507
vt 0.375000 -0.000000
vt 0.375000 0.502630
vt 0.125000 0.511551
vt 0.125000 1.000000
vt 0.187500 -0.000000
vt 0.187500 0.494507
vt 0.125000 0.494507
vt 0.125000 -0.000000
vt 0.187500 0.502630
vt 0.125000 0.502630
vt 0.437500 0.502630
vt 0.437500 0.511520
vt 0.437500 1.000000
vt 0.062500 0.502629
vt -0.000000 0.502629
vt 0.500000 -0.000000
vt 0.500000 0.494507
vt 0.500000 0.502630
vt 0.500000 0.511594
vt 0.500000 1.000000
vn 0.2071 0.9779 0.0279
vn 0.0000 1.0000 0.0000
vn 0.1817 0.9833 0.0042
vn 0.5467 0.8105 0.2100
vn 0.6514 0.6923 0.3104
vn 0.2073 0.9746 0.0848
vn 0.1445 0.9871 0.0689
vn 0.2095 0.9777 -0.0131
vn 0.5802 0.8110 0.0750
vn 0.6321 0.7747 0.0162
vn 0.7473 0.6572 0.0974
vn 0.7260 0.6874 0.0184
vn 0.2145 0.9767 -0.0068
vn 0.6013 0.7963 -0.0654
vn 0.5687 0.8224 -0.0166
vn 0.7582 0.6516 -0.0225
vn 0.2178 0.9753 0.0372
vn 0.5781 0.8152 -0.0343
vn 0.5542 0.8281 0.0841
vn 0.7530 0.6564 -0.0452
vn 0.7551 0.6450 0.1175
vn 0.7393 0.6686 -0.0801
vn 0.1973 0.9801 -0.0210
vn 0.7157 0.6405 0.2782
vn 0.6492 0.6948 0.3094
vn 0.6143 0.7876 -0.0474
vn 0.7354 0.6752 -0.0567
vn 0.1917 0.9813 -0.0148
s 1
f 41/1/1 19/2/2 8/3/2 32/4/3
f 24/5/2 23/6/4 6/7/5 3/8/2
f 43/9/6 22/10/2 4/11/2 31/12/7
f 32/4/3 8/3/2 17/13/2 39/14/8
f 21/15/2 20/16/9 9/17/10 7/18/2
f 20/16/9 40/19/11 33/20/12 9/17/10
f 34/21/13 11/22/2 19/2/2 41/1/1
f 25/23/2 27/24/14 12/25/15 10/26/2
f 12/25/15 35/27/16 40/19/11 20/16/9
f 36/28/17 13/29/2 22/10/2 43/9/6
f 16/30/2 18/31/18 14/32/19 15/33/2
f 18/31/18 38/34/20 37/35/21 14/32/19
f 9/17/10 33/20/12 38/34/20 18/31/18
f 7/18/2 9/17/10 18/31/18 16/30/2
f 27/24/14 44/36/22 35/27/16 12/25/15
f 39/14/8 17/13/2 13/29/2 36/28/17
f 10/26/2 12/25/15 20/16/9 21/15/2
f 45/37/23 26/38/2 11/22/2 34/21/13
f 15/33/2 14/32/19 23/6/4 24/5/2
f 14/32/19 37/35/21 42/39/24 23/6/4
f 23/6/4 42/39/24 30/40/25 6/7/5
f 1/41/2 5/42/26 27/24/14 25/23/2
f 5/42/26 29/43/27 44/36/22 27/24/14
f 43/9/6 31/12/7 30/40/25 42/39/24
f 41/1/1 32/4/3 33/20/12 40/19/11
f 45/37/23 34/21/13 35/27/16 44/36/22
f 39/14/8 36/28/17 37/35/21 38/34/20
f 32/4/3 39/14/8 38/34/20 33/20/12
f 34/21/13 41/1/1 40/19/11 35/27/16
f 36/28/17 43/9/6 42/39/24 37/35/21
f 28/44/28 45/37/23 44/36/22 29/43/27
f 28/44/28 2/45/2 26/38/2 45/37/23
