# Blender v2.82 (sub 7) OBJ File: 'bg.blend'
# www.blender.org
o tree_c_Cylinder.008
v -0.008107 -0.017973 -0.214898
v 0.107051 -0.017891 -0.185617
v 0.180745 -0.017891 -0.097638
v 0.218072 -0.017891 0.001747
v 0.180745 -0.017891 0.099246
v 0.094460 -0.017891 0.170085
v -0.005703 -0.017891 0.196314
v -0.104145 -0.017891 0.169937
v -0.176210 -0.017891 0.097873
v -0.213609 -0.018791 -0.002825
v -0.180744 -0.018933 -0.111605
v -0.100970 -0.018657 -0.202587
v -0.002627 0.139074 -0.128508
v 0.060098 0.138490 -0.112386
v 0.110549 0.138860 -0.064001
v 0.132863 0.139774 0.002913
v 0.115343 0.140264 0.068613
v 0.066479 0.140270 0.115954
v 0.001658 0.140270 0.133322
v -0.063162 0.140270 0.115954
v -0.110614 0.140270 0.068502
v -0.127983 0.140270 0.003681
v -0.110753 0.140737 -0.060883
v -0.064484 0.140648 -0.108878
v -0.021982 0.297865 -0.110408
v 0.023628 0.296652 -0.099608
v 0.064548 0.297865 -0.060450
v 0.087186 0.300446 -0.004989
v 0.082884 0.302980 0.050372
v 0.052456 0.304694 0.090598
v 0.005467 0.305522 0.105750
v -0.043694 0.305744 0.092838
v -0.081063 0.305522 0.055792
v -0.097419 0.304694 0.004068
v -0.090177 0.302980 -0.049545
v -0.062689 0.300446 -0.091519
v 0.046041 2.762195 -0.046356
v 0.067266 2.759421 -0.042099
v 0.082096 2.758321 -0.028447
v 0.087218 2.758321 -0.009330
v 0.082096 2.758321 0.009787
v 0.068101 2.758321 0.023782
v 0.048985 2.758321 0.028904
v 0.029868 2.758321 0.023782
v 0.015873 2.758321 0.009787
v 0.010751 2.758321 -0.009330
v 0.015038 2.759421 -0.028104
v 0.026924 2.762195 -0.041234
v 0.039436 1.286645 -0.066625
v 0.072727 1.286645 -0.033335
v 0.084912 1.286645 0.012141
v 0.072727 1.286645 0.057617
v 0.039436 1.286645 0.090907
v -0.006039 1.286645 0.103092
v -0.051515 1.286645 0.090907
v -0.084806 1.286645 0.057617
v -0.096991 1.286645 0.012141
v -0.084806 1.286645 -0.033335
v -0.051515 1.286645 -0.066625
v -0.006039 1.286645 -0.078811
v -0.067884 2.712683 -0.739331
v -0.495719 2.895761 0.123016
v 0.795429 2.595726 -0.286186
v 0.367594 2.778804 0.576160
v 0.196203 2.982336 -0.108820
v -0.574150 2.442087 0.740639
v 0.369857 2.667974 0.620817
v -0.752960 2.698699 -0.184335
v 0.191047 2.924586 -0.304157
v -0.237246 2.912747 0.290719
v -0.214313 2.724586 -0.062941
v 0.061607 2.660652 0.878383
v 0.672769 2.434233 -0.342682
v 0.948689 2.370299 0.598643
v 0.441362 2.779801 0.261891
v -0.397302 2.659421 -0.387748
v 0.325439 2.619299 0.277727
v 0.231385 2.396175 -1.086406
v 0.954126 2.356053 -0.420931
v 0.329952 2.741914 -0.446196
v -0.921403 2.433511 0.038498
v -0.148268 2.862089 0.421009
v -0.448014 2.343851 -0.817865
v 0.325121 2.772429 -0.435355
v -0.385136 2.823427 -0.269600
v 0.724237 1.888029 0.817057
v 0.766890 2.181075 -0.111082
v -0.155646 2.279638 0.900267
v -0.112994 2.572684 -0.027872
v 0.408135 2.445269 0.467159
v -0.159287 2.107719 0.940662
v 0.252659 2.576520 0.212589
v -1.017391 2.115753 0.460317
v -0.605445 2.584554 -0.267757
v -0.440152 2.562865 0.443307
v -0.945221 2.110116 -0.716145
v -0.900122 2.069586 0.265251
v 0.004575 2.340041 -0.750297
v 0.049674 2.299510 0.231099
v -0.504422 2.440659 -0.230180
v -0.489728 2.305198 -0.020749
v 0.493482 2.305198 0.000499
v -0.468481 2.305198 -1.003958
v 0.514729 2.305198 -0.982711
v 0.012500 2.546292 -0.501730
v 1.086502 1.917624 -0.234943
v 0.442710 2.088627 -0.954237
v 0.512527 2.372086 0.386826
v -0.131264 2.543089 -0.332469
v 0.592135 2.445304 -0.335100
v -0.347957 2.143572 0.306734
v 0.204311 1.909651 1.078766
v 0.406933 1.957728 -0.289581
v 0.959201 1.723807 0.482451
v 0.377700 2.166027 0.413429
v 0.163541 2.030121 0.508830
v 1.047011 1.745245 0.211387
v -0.121812 2.122134 -0.426859
v 0.761658 1.837258 -0.724301
v 0.537486 2.165933 -0.107736
v -0.735590 2.073052 -0.210935
v 0.162740 2.177619 0.172425
v -0.339873 1.854458 -1.078597
v 0.558457 1.959025 -0.695237
v -0.090318 2.251478 -0.513201
v -1.007704 1.933690 0.111768
v -0.095808 1.933690 0.480005
v -0.639467 1.933690 -0.800128
v 0.272429 1.933690 -0.431891
v -0.367638 2.174783 -0.160062
v -0.045745 1.735489 1.073474
v 0.357792 2.004886 0.226977
v -0.939578 1.862493 0.687789
v -0.536041 2.131890 -0.158707
v -0.289975 2.166053 0.531771
v -0.355547 1.755476 0.559881
v 0.358266 1.563859 1.202756
v 0.307403 1.791696 -0.165424
v 1.021215 1.600079 0.477451
v 0.361942 1.915257 0.557130
v 0.791908 1.592390 -0.719384
v -0.146169 1.674625 -0.438302
v 1.071368 1.559744 0.222831
v 0.133291 1.641979 0.503913
v 0.484243 1.857551 -0.105827
v -0.675554 1.430146 -0.714994
v -0.442078 1.889734 0.094810
v 0.264945 1.456280 -1.000983
v 0.498422 1.915868 -0.191179
v -0.128685 1.890791 -0.565118
v -0.908394 1.427031 0.227711
v 0.006430 1.707469 0.415148
v -0.741705 1.526901 -0.735272
v 0.173119 1.807339 -0.547834
v -0.441194 1.849539 -0.148697
v -0.359634 1.431636 0.993879
v 0.438533 1.667053 0.480934
v -0.921593 1.723047 0.253189
v -0.123426 1.958464 -0.259757
v -0.247950 1.921875 0.461173
v -0.314427 1.496689 0.007188
v 0.181056 1.371643 0.845509
v 0.515837 1.372782 -0.502017
v 1.011321 1.247735 0.336304
v 0.390527 1.610385 0.182402
v -0.403688 1.323529 -0.087613
v 0.038479 1.174510 0.775429
v 0.394169 1.012926 -0.550014
v 0.836336 0.863907 0.313027
v 0.302789 1.322869 0.107975
v -0.723350 1.190299 -0.716179
v -0.365699 1.490050 0.138527
v 0.188567 1.038977 -1.044699
v 0.546217 1.338728 -0.189994
v -0.080659 1.494318 -0.536989
v -0.794579 0.991164 -0.586840
v -0.714513 1.093393 0.386882
v -0.020762 1.529673 -0.707006
v 0.059304 1.631902 0.266717
v -0.512059 1.516900 -0.169748
v -0.668794 1.000795 0.715515
v 0.314371 0.983392 0.702307
v -0.678463 1.184963 -0.246830
v 0.304702 1.167561 -0.260038
v -0.177225 1.322027 0.273208
vt 0.996858 0.047760
vt 0.965385 0.047760
vt 0.965385 0.007124
vt 0.996858 0.007124
vt 0.996858 0.088395
vt 0.965385 0.088395
vt 0.996858 0.129030
vt 0.965385 0.129030
vt 0.996858 0.169666
vt 0.965385 0.169666
vt 0.996858 0.210301
vt 0.965385 0.210301
vt 0.996858 0.250936
vt 0.965385 0.250936
vt 0.996858 0.291571
vt 0.965385 0.291571
vt 0.996858 0.332207
vt 0.965385 0.332207
vt 0.996858 0.372842
vt 0.965385 0.372842
vt 0.996858 0.413477
vt 0.965385 0.413477
vt 0.996858 0.454112
vt 0.965385 0.454112
vt 0.996858 0.494748
vt 0.965385 0.494748
vt 0.924723 0.047760
vt 0.924723 0.007124
vt 0.924723 0.088395
vt 0.924723 0.129030
vt 0.924723 0.169666
vt 0.924723 0.210301
vt 0.924723 0.250936
vt 0.924723 0.291571
vt 0.924723 0.332207
vt 0.924723 0.372842
vt 0.924723 0.413477
vt 0.924723 0.454112
vt 0.924723 0.494748
vt 0.715064 0.047760
vt 0.505406 0.047760
vt 0.505406 0.007124
vt 0.715064 0.007124
vt 0.715064 0.088395
vt 0.505406 0.088395
vt 0.715064 0.129030
vt 0.505406 0.129030
vt 0.715064 0.169666
vt 0.505406 0.169666
vt 0.715064 0.210301
vt 0.505406 0.210301
vt 0.715064 0.250936
vt 0.505406 0.250936
vt 0.715064 0.291571
vt 0.505406 0.291571
vt 0.715064 0.332207
vt 0.505406 0.332207
vt 0.715064 0.372842
vt 0.505406 0.372842
vt 0.715064 0.413477
vt 0.505406 0.413477
vt 0.715064 0.454112
vt 0.505406 0.454112
vt 0.715064 0.494748
vt 0.505406 0.494748
vt 0.027603 0.027603
vt 0.472397 0.027603
vt 0.250000 0.250000
vt 0.027603 0.472397
vt 0.472397 0.472397
vt 0.027603 0.027603
vt 0.472397 0.027603
vt 0.250000 0.250000
vt 0.027603 0.472397
vt 0.472397 0.472397
vt 0.027603 0.027603
vt 0.472397 0.027603
vt 0.250000 0.250000
vt 0.027603 0.472397
vt 0.472397 0.472397
vt 0.027603 0.027603
vt 0.472397 0.027603
vt 0.250000 0.250000
vt 0.027603 0.472397
vt 0.472397 0.472397
vt 0.027603 0.027603
vt 0.472397 0.027603
vt 0.250000 0.250000
vt 0.027603 0.472397
vt 0.472397 0.472397
vt 0.027603 0.027603
vt 0.472397 0.027603
vt 0.250000 0.250000
vt 0.027603 0.472397
vt 0.472397 0.472397
vt 0.027603 0.027603
vt 0.472397 0.027603
vt 0.250000 0.250000
vt 0.027603 0.472397
vt 0.472397 0.472397
vt 0.027603 0.027603
vt 0.472397 0.027603
vt 0.250000 0.250000
vt 0.027603 0.472397
vt 0.472397 0.472397
vt 0.027603 0.027603
vt 0.472397 0.027603
vt 0.250000 0.250000
vt 0.027603 0.472397
vt 0.472397 0.472397
vt 0.027603 0.027603
vt 0.472397 0.027603
vt 0.250000 0.250000
vt 0.027603 0.472397
vt 0.472397 0.472397
vt 0.027603 0.027603
vt 0.472397 0.027603
vt 0.250000 0.250000
vt 0.027603 0.472397
vt 0.472397 0.472397
vt 0.027603 0.027603
vt 0.472397 0.027603
vt 0.250000 0.250000
vt 0.027603 0.472397
vt 0.472397 0.472397
vt 0.027603 0.027603
vt 0.472397 0.027603
vt 0.250000 0.250000
vt 0.027603 0.472397
vt 0.472397 0.472397
vt 0.027603 0.027603
vt 0.472397 0.027603
vt 0.250000 0.250000
vt 0.027603 0.472397
vt 0.472397 0.472397
vt 0.027603 0.027603
vt 0.472397 0.027603
vt 0.250000 0.250000
vt 0.027603 0.472397
vt 0.472397 0.472397
vt 0.027603 0.027603
vt 0.472397 0.027603
vt 0.250000 0.250000
vt 0.027603 0.472397
vt 0.472397 0.472397
vt 0.027603 0.027603
vt 0.472397 0.027603
vt 0.250000 0.250000
vt 0.027603 0.472397
vt 0.472397 0.472397
vt 0.027603 0.027603
vt 0.472397 0.027603
vt 0.250000 0.250000
vt 0.027603 0.472397
vt 0.472397 0.472397
vt 0.027603 0.027603
vt 0.472397 0.027603
vt 0.250000 0.250000
vt 0.027603 0.472397
vt 0.472397 0.472397
vt 0.027603 0.027603
vt 0.472397 0.027603
vt 0.250000 0.250000
vt 0.027603 0.472397
vt 0.472397 0.472397
vt 0.027603 0.027603
vt 0.472397 0.027603
vt 0.250000 0.250000
vt 0.027603 0.472397
vt 0.472397 0.472397
vt 0.027603 0.027603
vt 0.472397 0.027603
vt 0.250000 0.250000
vt 0.027603 0.472397
vt 0.472397 0.472397
vt 0.027603 0.027603
vt 0.472397 0.027603
vt 0.250000 0.250000
vt 0.027603 0.472397
vt 0.472397 0.472397
vt 0.027603 0.027603
vt 0.472397 0.027603
vt 0.250000 0.250000
vt 0.027603 0.472397
vt 0.472397 0.472397
vt 0.027603 0.027603
vt 0.472397 0.027603
vt 0.250000 0.250000
vt 0.027603 0.472397
vt 0.472397 0.472397
vn -0.4162 0.5134 -0.7505
vn -0.5153 0.3220 -0.7942
vn 0.0000 0.3256 -0.9455
vn 0.0164 0.4956 -0.8684
vn -0.7624 0.4818 -0.4320
vn -0.8421 0.3236 -0.4314
vn -0.8869 0.4619 0.0084
vn -0.9437 0.3294 0.0301
vn -0.7767 0.4205 0.4689
vn -0.8127 0.3112 0.4926
vn -0.4660 0.3916 0.7934
vn -0.4758 0.2910 0.8300
vn -0.0075 0.3709 0.9286
vn 0.0069 0.2756 0.9612
vn 0.4359 0.3680 0.8213
vn 0.4801 0.2814 0.8309
vn 0.7620 0.4151 0.4970
vn 0.8167 0.3270 0.4755
vn 0.8867 0.4621 -0.0111
vn 0.9286 0.3685 -0.0438
vn 0.7635 0.4573 -0.4559
vn 0.7923 0.3579 -0.4942
vn 0.4551 0.4743 -0.7536
vn 0.4775 0.3413 -0.8096
vn -0.5818 0.0646 -0.8107
vn -0.0656 0.0729 -0.9952
vn -0.9012 0.0765 -0.4266
vn -0.9951 0.0895 0.0419
vn -0.8554 0.0927 0.5096
vn -0.4931 0.0887 0.8654
vn 0.0165 0.0866 0.9961
vn 0.5362 0.0957 0.8386
vn 0.8974 0.1184 0.4250
vn 0.9861 0.1349 -0.0966
vn 0.8257 0.1271 -0.5495
vn 0.4689 0.1015 -0.8774
vn -0.5463 0.0344 -0.8368
vn -0.4884 0.0412 -0.8716
vn -0.0149 0.0222 -0.9996
vn -0.0305 0.0266 -0.9992
vn -0.8911 0.0367 -0.4522
vn -0.8605 0.0600 -0.5059
vn -0.9989 0.0367 0.0279
vn -0.9973 0.0728 -0.0008
vn -0.8624 0.0355 0.5049
vn -0.8630 0.0753 0.4994
vn -0.5010 0.0322 0.8648
vn -0.4952 0.0669 0.8661
vn 0.0030 0.0263 0.9996
vn 0.0062 0.0501 0.9987
vn 0.5171 0.0179 0.8557
vn 0.5054 0.0295 0.8623
vn 0.8849 0.0082 0.4657
vn 0.8685 0.0106 0.4955
vn 0.9992 0.0015 -0.0401
vn 1.0000 -0.0016 -0.0024
vn 0.8546 0.0027 -0.5192
vn 0.8610 -0.0036 -0.5085
vn 0.4877 0.0133 -0.8729
vn 0.4761 0.0058 -0.8794
vn 0.0769 0.9047 -0.4191
vn -0.1269 0.9919 -0.0083
vn 0.1910 0.9751 -0.1122
vn 0.4875 0.8490 -0.2036
vn 0.2837 0.9362 0.2072
vn -0.3606 0.7664 0.5316
vn 0.0954 0.8755 0.4737
vn -0.1866 0.9368 0.2959
vn -0.4472 0.8905 0.0842
vn 0.0089 0.9996 0.0263
vn 0.0068 0.9834 -0.1810
vn 0.1390 0.9528 0.2698
vn 0.3040 0.9523 -0.0244
vn 0.4344 0.8435 -0.3158
vn 0.5665 0.8129 0.1349
vn -0.1235 0.9804 -0.1534
vn 0.2214 0.9612 0.1642
vn 0.2117 0.9621 -0.1719
vn 0.1781 0.8541 -0.4887
vn 0.5231 0.8349 -0.1711
vn -0.6380 0.7540 -0.1563
vn -0.2548 0.9664 0.0333
vn -0.3515 0.8909 -0.2876
vn -0.4068 0.7102 -0.5745
vn -0.0236 0.9226 -0.3850
vn 0.5958 0.6414 0.4833
vn 0.6169 0.7866 0.0233
vn 0.4118 0.8634 0.2915
vn 0.1573 0.8366 0.5247
vn 0.1784 0.9818 0.0648
vn -0.1111 0.7011 0.7043
vn 0.0949 0.9355 0.3403
vn -0.2326 0.8723 0.4301
vn -0.5323 0.7050 0.4686
vn -0.3263 0.9395 0.1045
vn -0.4577 0.8712 -0.1773
vn -0.4363 0.8519 0.2896
vn -0.2332 0.9711 0.0508
vn -0.0040 0.9810 -0.1937
vn 0.0175 0.9618 0.2733
vn -0.2365 0.9448 0.2265
vn 0.2265 0.9448 0.2365
vn 0.0000 1.0000 0.0000
vn -0.2265 0.9448 -0.2365
vn 0.2365 0.9448 -0.2265
vn 0.7349 0.6558 -0.1724
vn 0.4174 0.7402 -0.5271
vn 0.4600 0.8635 -0.2065
vn 0.4476 0.8834 0.1389
vn 0.1300 0.9677 -0.2158
vn -0.0353 0.9989 0.0303
vn 0.2302 0.8864 0.4015
vn 0.2954 0.9522 0.0772
vn 0.3270 0.9097 -0.2559
vn 0.5926 0.7972 0.1153
vn 0.1449 0.9442 0.2958
vn 0.5707 0.8069 0.1525
vn 0.3069 0.9517 0.0000
vn 0.0081 0.9883 -0.1525
vn 0.4339 0.8509 -0.2958
vn -0.3154 0.9416 -0.1174
vn 0.1126 0.9915 0.0652
vn -0.0072 0.9689 -0.2474
vn -0.1263 0.8372 -0.5321
vn 0.3018 0.8870 -0.3494
vn -0.3015 0.9448 0.1280
vn 0.1280 0.9448 0.3015
vn -0.1280 0.9448 -0.3015
vn 0.3015 0.9448 -0.1280
vn 0.1206 0.8029 0.5838
vn 0.3149 0.9326 0.1762
vn 0.0038 0.9524 0.3049
vn -0.3078 0.8638 0.3989
vn -0.1135 0.9935 -0.0087
vn -0.2136 0.9622 0.1690
vn 0.1259 0.8710 0.4748
vn 0.1201 0.9800 0.1587
vn 0.1008 0.9794 -0.1751
vn 0.4404 0.8882 0.1307
vn 0.2402 0.9291 -0.2811
vn -0.2026 0.9679 -0.1484
vn 0.0897 0.9959 0.0079
vn 0.3720 0.9137 0.1634
vn -0.0707 0.9525 0.2960
vn -0.4407 0.7043 -0.5565
vn -0.3243 0.9336 -0.1525
vn -0.1616 0.8775 -0.4514
vn 0.0202 0.7171 -0.6966
vn 0.1367 0.9464 -0.2926
vn -0.5446 0.8067 0.2295
vn -0.1039 0.9418 0.3197
vn -0.3015 0.9523 0.0466
vn -0.4648 0.8545 -0.2319
vn -0.0240 0.9896 -0.1416
vn -0.0816 0.7418 0.6656
vn 0.3058 0.8561 0.4166
vn -0.0261 0.9233 0.3831
vn -0.3550 0.8836 0.3052
vn 0.0323 0.9979 0.0562
vn -0.1502 0.9879 -0.0365
vn 0.0847 0.9286 0.3611
vn 0.1738 0.9838 0.0440
vn 0.2435 0.9292 -0.2780
vn 0.4785 0.8699 0.1196
vn 0.0325 0.9929 -0.1141
vn 0.2457 0.9210 0.3020
vn 0.3529 0.9354 -0.0193
vn 0.4196 0.8422 -0.3385
vn 0.6328 0.7704 0.0777
vn -0.2758 0.8488 -0.4510
vn -0.1026 0.9940 -0.0370
vn 0.0323 0.9388 -0.3428
vn 0.1635 0.7759 -0.6092
vn 0.3367 0.9211 -0.1952
vn -0.7573 0.6040 -0.2484
vn -0.7173 0.6550 0.2374
vn -0.5748 0.8174 -0.0385
vn -0.3616 0.8793 -0.3098
vn -0.3217 0.9303 0.1760
vn -0.2119 0.8875 0.4091
vn 0.2541 0.8793 0.4028
vn 0.0199 0.9820 0.1877
vn -0.2165 0.9751 -0.0483
vn 0.2495 0.9668 -0.0545
s 1
f 12/1/1 24/2/2 13/3/3 1/4/4
f 11/5/5 23/6/6 24/2/2 12/1/1
f 10/7/7 22/8/8 23/6/6 11/5/5
f 9/9/9 21/10/10 22/8/8 10/7/7
f 8/11/11 20/12/12 21/10/10 9/9/9
f 7/13/13 19/14/14 20/12/12 8/11/11
f 6/15/15 18/16/16 19/14/14 7/13/13
f 5/17/17 17/18/18 18/16/16 6/15/15
f 4/19/19 16/20/20 17/18/18 5/17/17
f 3/21/21 15/22/22 16/20/20 4/19/19
f 2/23/23 14/24/24 15/22/22 3/21/21
f 1/25/4 13/26/3 14/24/24 2/23/23
f 24/2/2 36/27/25 25/28/26 13/3/3
f 23/6/6 35/29/27 36/27/25 24/2/2
f 22/8/8 34/30/28 35/29/27 23/6/6
f 21/10/10 33/31/29 34/30/28 22/8/8
f 20/12/12 32/32/30 33/31/29 21/10/10
f 19/14/14 31/33/31 32/32/30 20/12/12
f 18/16/16 30/34/32 31/33/31 19/14/14
f 17/18/18 29/35/33 30/34/32 18/16/16
f 16/20/20 28/36/34 29/35/33 17/18/18
f 15/22/22 27/37/35 28/36/34 16/20/20
f 14/24/24 26/38/36 27/37/35 15/22/22
f 13/26/3 25/39/26 26/38/36 14/24/24
f 59/40/37 48/41/38 37/42/39 60/43/40
f 58/44/41 47/45/42 48/41/38 59/40/37
f 57/46/43 46/47/44 47/45/42 58/44/41
f 56/48/45 45/49/46 46/47/44 57/46/43
f 55/50/47 44/51/48 45/49/46 56/48/45
f 54/52/49 43/53/50 44/51/48 55/50/47
f 53/54/51 42/55/52 43/53/50 54/52/49
f 52/56/53 41/57/54 42/55/52 53/54/51
f 51/58/55 40/59/56 41/57/54 52/56/53
f 50/60/57 39/61/58 40/59/56 51/58/55
f 49/62/59 38/63/60 39/61/58 50/60/57
f 60/64/40 37/65/39 38/63/60 49/62/59
f 25/39/26 60/64/40 49/62/59 26/38/36
f 26/38/36 49/62/59 50/60/57 27/37/35
f 27/37/35 50/60/57 51/58/55 28/36/34
f 28/36/34 51/58/55 52/56/53 29/35/33
f 29/35/33 52/56/53 53/54/51 30/34/32
f 30/34/32 53/54/51 54/52/49 31/33/31
f 31/33/31 54/52/49 55/50/47 32/32/30
f 32/32/30 55/50/47 56/48/45 33/31/29
f 33/31/29 56/48/45 57/46/43 34/30/28
f 34/30/28 57/46/43 58/44/41 35/29/27
f 35/29/27 58/44/41 59/40/37 36/27/25
f 36/27/25 59/40/37 60/43/40 25/28/26
f 61/66/61 62/67/62 65/68/63
f 63/69/64 65/68/63 64/70/65
f 64/70/65 65/68/63 62/67/62
f 65/68/63 63/69/64 61/66/61
f 66/71/66 67/72/67 70/73/68
f 68/74/69 70/73/68 69/75/70
f 69/75/70 70/73/68 67/72/67
f 70/73/68 68/74/69 66/71/66
f 71/76/71 72/77/72 75/78/73
f 73/79/74 75/78/73 74/80/75
f 74/80/75 75/78/73 72/77/72
f 75/78/73 73/79/74 71/76/71
f 76/81/76 77/82/77 80/83/78
f 78/84/79 80/83/78 79/85/80
f 79/85/80 80/83/78 77/82/77
f 80/83/78 78/84/79 76/81/76
f 81/86/81 82/87/82 85/88/83
f 83/89/84 85/88/83 84/90/85
f 84/90/85 85/88/83 82/87/82
f 85/88/83 83/89/84 81/86/81
f 86/91/86 87/92/87 90/93/88
f 88/94/89 90/93/88 89/95/90
f 89/95/90 90/93/88 87/92/87
f 90/93/88 88/94/89 86/91/86
f 91/96/91 92/97/92 95/98/93
f 93/99/94 95/98/93 94/100/95
f 94/100/95 95/98/93 92/97/92
f 95/98/93 93/99/94 91/96/91
f 96/101/96 97/102/97 100/103/98
f 98/104/99 100/103/98 99/105/100
f 99/105/100 100/103/98 97/102/97
f 100/103/98 98/104/99 96/101/96
f 101/106/101 102/107/102 105/108/103
f 103/109/104 105/108/103 104/110/105
f 104/110/105 105/108/103 102/107/102
f 105/108/103 103/109/104 101/106/101
f 106/111/106 107/112/107 110/113/108
f 108/114/109 110/113/108 109/115/110
f 109/115/110 110/113/108 107/112/107
f 110/113/108 108/114/109 106/111/106
f 111/116/111 112/117/112 115/118/113
f 113/119/114 115/118/113 114/120/115
f 114/120/115 115/118/113 112/117/112
f 115/118/113 113/119/114 111/116/111
f 116/121/116 117/122/117 120/123/118
f 118/124/119 120/123/118 119/125/120
f 119/125/120 120/123/118 117/122/117
f 120/123/118 118/124/119 116/121/116
f 121/126/121 122/127/122 125/128/123
f 123/129/124 125/128/123 124/130/125
f 124/130/125 125/128/123 122/127/122
f 125/128/123 123/129/124 121/126/121
f 126/131/126 127/132/127 130/133/103
f 128/134/128 130/133/103 129/135/129
f 129/135/129 130/133/103 127/132/127
f 130/133/103 128/134/128 126/131/126
f 131/136/130 132/137/131 135/138/132
f 133/139/133 135/138/132 134/140/134
f 134/140/134 135/138/132 132/137/131
f 135/138/132 133/139/133 131/136/130
f 136/141/135 137/142/136 140/143/137
f 138/144/138 140/143/137 139/145/139
f 139/145/139 140/143/137 137/142/136
f 140/143/137 138/144/138 136/141/135
f 141/146/140 142/147/141 145/148/142
f 143/149/143 145/148/142 144/150/144
f 144/150/144 145/148/142 142/147/141
f 145/148/142 143/149/143 141/146/140
f 146/151/145 147/152/146 150/153/147
f 148/154/148 150/153/147 149/155/149
f 149/155/149 150/153/147 147/152/146
f 150/153/147 148/154/148 146/151/145
f 151/156/150 152/157/151 155/158/152
f 153/159/153 155/158/152 154/160/154
f 154/160/154 155/158/152 152/157/151
f 155/158/152 153/159/153 151/156/150
f 156/161/155 157/162/156 160/163/157
f 158/164/158 160/163/157 159/165/159
f 159/165/159 160/163/157 157/162/156
f 160/163/157 158/164/158 156/161/155
f 161/166/160 162/167/161 165/168/162
f 163/169/163 165/168/162 164/170/164
f 164/170/164 165/168/162 162/167/161
f 165/168/162 163/169/163 161/166/160
f 166/171/165 167/172/166 170/173/167
f 168/174/168 170/173/167 169/175/169
f 169/175/169 170/173/167 167/172/166
f 170/173/167 168/174/168 166/171/165
f 171/176/170 172/177/171 175/178/172
f 173/179/173 175/178/172 174/180/174
f 174/180/174 175/178/172 172/177/171
f 175/178/172 173/179/173 171/176/170
f 176/181/175 177/182/176 180/183/177
f 178/184/178 180/183/177 179/185/179
f 179/185/179 180/183/177 177/182/176
f 180/183/177 178/184/178 176/181/175
f 181/186/180 182/187/181 185/188/182
f 183/189/183 185/188/182 184/190/184
f 184/190/184 185/188/182 182/187/181
f 185/188/182 183/189/183 181/186/180
