# Blender v2.82 (sub 7) OBJ File: 'bg.blend'
# www.blender.org
o wall_b_Cube.059
v -0.325210 0.113512 -1.621608
v -0.024825 0.111543 1.685806
v -0.023830 0.113512 -1.621608
v 0.276555 0.111543 1.685806
v -0.409452 -0.011181 -1.660612
v 0.060412 -0.011181 -1.660612
v -0.325210 0.175687 -1.621608
v -0.024825 0.173718 1.522318
v 0.276555 0.173718 1.522318
v -0.023830 0.175687 -1.621608
v -0.325210 0.243600 -1.621608
v -0.011460 0.215626 1.436301
v 0.276555 0.241631 1.436301
v -0.023830 0.243600 -1.621608
v -0.325210 0.310605 -1.621608
v 0.002485 0.294567 1.380411
v 0.276555 0.308636 1.361192
v -0.023830 0.310605 -1.621608
v -0.024825 0.111543 1.263334
v 0.276555 0.111543 1.263334
v -0.109067 -0.013151 1.289883
v 0.329262 -0.013151 1.304672
v 0.276555 0.173718 1.153671
v -0.024825 0.173718 1.153671
v 0.276555 0.241631 1.095974
v -0.024825 0.224187 1.095974
v 0.276555 0.308636 1.045593
v -0.024825 0.299199 1.058484
v -0.300405 0.395615 -1.621608
v -0.325210 0.371389 -1.621608
v 0.034819 0.360457 1.320474
v 0.009244 0.332303 1.359711
v -0.023830 0.371124 -1.621608
v -0.048611 0.395615 -1.621608
v 0.252144 0.390152 1.304573
v 0.276555 0.369186 1.337191
v -0.379761 0.113512 -1.646865
v -0.409452 0.088870 -1.660612
v -0.084452 0.086901 1.745685
v -0.109067 0.086901 1.719889
v -0.081109 0.111543 1.725041
v 0.060412 0.088870 -1.660612
v 0.039364 0.113512 -1.650867
v 0.336182 0.086901 1.765423
v 0.337354 0.111543 1.744101
v 0.359118 0.086901 1.741994
v -0.109067 -0.013151 1.719889
v -0.084452 -0.013151 1.745685
v 0.336182 -0.013151 1.765423
v 0.359118 -0.013151 1.741994
v -0.024825 0.344119 1.043811
v -0.000227 0.370453 1.034829
v 0.276555 0.369167 1.029499
v 0.251981 0.391586 1.024041
v -0.081519 0.111543 1.281201
v -0.109067 0.086901 1.289883
v 0.305773 0.111543 1.286249
v 0.329262 0.086901 1.304672
vt 0.854138 0.626050
vt 0.853973 0.023763
vt 0.839617 0.023797
vt 0.839313 0.620338
vt 0.748455 0.626722
vt 0.767233 0.707185
vt 0.773841 0.696823
vt 0.759471 0.621385
vt 0.837340 0.701645
vt 0.828106 0.686396
vt 0.822695 0.678941
vt 0.830667 0.618045
vt 0.769054 0.618753
vt 0.780967 0.685236
vt 0.116826 0.526407
vt 0.098873 0.505294
vt 0.012771 0.586214
vt 0.038657 0.598024
vt 0.163706 0.729405
vt 0.153300 0.734301
vt 0.700434 0.953513
vt 0.701504 0.939748
vt 0.143864 0.741094
vt 0.135253 0.762087
vt 0.690501 0.982297
vt 0.698496 0.963906
vt 0.138425 0.543065
vt 0.125863 0.533823
vt 0.043543 0.605771
vt 0.054897 0.614806
vt 0.053598 0.698263
vt 0.067202 0.687329
vt 0.898308 0.687977
vt 0.900262 0.023770
vt 0.885666 0.023758
vt 0.884258 0.655945
vt 0.737994 0.833223
vt 0.864744 0.834416
vt 0.858405 0.767713
vt 0.745116 0.768665
vt 0.706033 0.688409
vt 0.720320 0.654605
vt 0.869727 0.023754
vt 0.868734 0.639469
vt 0.847100 0.730287
vt 0.752232 0.736326
vt 0.731409 0.638254
vt 0.724671 0.016351
vt 0.740505 0.016033
vt 0.708603 0.016689
vt 0.693941 0.016999
vt 0.035743 0.606228
vt 0.007937 0.597552
vt 0.023249 0.715416
vt 0.045825 0.699382
vt 0.050861 0.705543
vt 0.029931 0.724177
vt 0.686436 0.034704
vt 0.669597 0.015750
vt 0.693691 0.063354
vt 0.690755 0.048312
vt 0.828743 0.022930
vt 0.765848 0.016431
vt 0.754849 0.015750
vn 0.9936 -0.0149 -0.1122
vn -0.9876 0.1228 0.0982
vn 1.0000 -0.0000 0.0000
vn -0.1061 0.9940 0.0267
vn -1.0000 0.0000 -0.0000
vn 0.0000 1.0000 0.0007
vn 0.9959 0.0000 -0.0903
vn 0.0000 1.0000 0.0000
vn 0.9901 -0.0927 -0.1052
vn 0.0000 0.9347 0.3555
vn -0.1009 0.9231 0.3711
vn 0.1009 0.9364 0.3361
vn -0.9961 0.0856 0.0215
vn 0.9930 -0.0461 -0.1086
vn 0.0655 0.8448 0.5310
vn -0.1380 0.8264 0.5460
vn -0.1725 0.8320 0.5273
vn 0.0975 0.8301 0.5491
vn -0.9844 0.1746 0.0207
vn -0.9655 0.2553 0.0512
vn -0.9864 0.1641 -0.0092
vn 0.9930 -0.0417 -0.1108
vn 0.1123 0.6509 0.7508
vn -0.1578 0.6597 0.7348
vn -0.1746 0.6663 0.7249
vn 0.1274 0.6391 0.7585
vn -0.9897 0.1281 0.0633
vn -0.9906 0.1330 0.0321
vn -0.9880 0.1458 0.0517
vn -0.9934 0.0292 0.1107
vn -0.9927 0.0530 0.1088
vn -0.9901 0.0927 0.1052
vn -0.0469 0.0000 0.9989
vn 0.9977 0.0000 -0.0681
vn -0.9949 0.0000 0.1013
vn 0.0314 0.4120 0.9106
vn -0.0417 0.9991 0.0102
vn -0.5992 0.5603 0.5718
vn 0.6205 0.4961 0.6074
vn -0.6837 0.7222 0.1047
vn -0.0686 0.8241 0.5623
vn 0.6913 0.7184 -0.0776
vn -0.6544 0.7532 0.0671
vn -0.0351 0.6498 0.7593
vn 0.7440 0.6662 -0.0511
vn -0.7235 0.0000 0.6903
vn 0.7146 0.0000 0.6995
vn -0.7048 0.7041 0.0865
vn 0.6623 0.7492 0.0016
vn -0.6639 0.7478 0.0003
vn 0.7461 0.6624 -0.0672
vn -0.9936 0.0155 0.1118
s off
f 27/1/1 18/2/1 33/3/1 53/4/1
f 28/5/2 16/6/2 32/7/2 51/8/2
f 17/9/3 27/1/3 53/4/3 36/10/3
f 35/11/4 54/12/4 52/13/4 31/14/4
f 56/15/5 21/16/5 47/17/5 40/18/5
f 20/19/6 57/20/6 43/21/6 3/22/6
f 58/23/7 22/24/7 6/25/7 42/26/7
f 19/27/8 55/28/8 41/29/8 2/30/8
f 2/30/8 41/29/8 45/31/8 4/32/8
f 4/32/8 45/31/8 57/20/8 20/19/8
f 20/33/9 3/34/9 10/35/9 23/36/9
f 2/37/10 4/38/10 9/39/11 8/40/12
f 19/41/5 2/37/5 8/40/13 24/42/5
f 23/36/14 10/35/14 14/43/14 25/44/14
f 8/40/15 9/39/16 13/45/17 12/46/18
f 24/42/19 8/40/20 12/46/21 26/47/19
f 25/44/22 14/43/22 18/2/22 27/1/22
f 12/46/23 13/45/24 17/9/25 16/6/26
f 26/47/27 12/46/28 16/6/29 28/5/27
f 11/48/30 26/47/30 28/5/30 15/49/30
f 13/45/3 25/44/3 27/1/3 17/9/3
f 7/50/31 24/42/31 26/47/31 11/48/31
f 9/39/3 23/36/3 25/44/3 13/45/3
f 1/51/32 19/41/32 24/42/32 7/50/32
f 4/38/3 20/33/3 23/36/3 9/39/3
f 39/52/33 48/53/33 49/54/33 44/55/33
f 46/56/34 50/57/34 22/24/34 58/23/34
f 38/58/35 5/59/35 21/16/35 56/15/35
f 16/6/36 17/9/36 36/10/36 32/7/36
f 1/60/6 37/61/6 55/28/6 19/27/6
f 54/12/37 34/62/37 29/63/37 52/13/37
f 39/52/38 41/29/38 40/18/38
f 44/55/39 46/56/39 45/31/39
f 52/13/40 51/8/40 32/7/40 31/14/40
f 31/14/41 32/7/41 36/10/41 35/11/41
f 54/12/42 53/4/42 33/3/42 34/62/42
f 56/15/43 55/28/43 37/61/43 38/58/43
f 44/55/44 45/31/44 41/29/44 39/52/44
f 58/23/45 57/20/45 45/31/45 46/56/45
f 39/52/46 40/18/46 47/17/46 48/53/46
f 46/56/47 44/55/47 49/54/47 50/57/47
f 29/63/48 30/64/48 51/8/48 52/13/48
f 35/11/49 36/10/49 53/4/49 54/12/49
f 40/18/50 41/29/50 55/28/50 56/15/50
f 42/26/51 43/21/51 57/20/51 58/23/51
f 15/49/52 28/5/52 51/8/52 30/64/52
